<svg width="20" height="20" viewBox="0 0 20 20" fill="none" xmlns="http://www.w3.org/2000/svg">
<path d="M2.5 5H4.16667H17.5" stroke="#231F20" stroke-width="1.2" stroke-linecap="round" stroke-linejoin="round"/>
<path d="M6.66602 5.00002V3.33335C6.66602 2.89133 6.84161 2.4674 7.15417 2.15484C7.46673 1.84228 7.89066 1.66669 8.33268 1.66669H11.666C12.108 1.66669 12.532 1.84228 12.8445 2.15484C13.1571 2.4674 13.3327 2.89133 13.3327 3.33335V5.00002M15.8327 5.00002V16.6667C15.8327 17.1087 15.6571 17.5326 15.3445 17.8452C15.032 18.1578 14.608 18.3334 14.166 18.3334H5.83268C5.39065 18.3334 4.96673 18.1578 4.65417 17.8452C4.34161 17.5326 4.16602 17.1087 4.16602 16.6667V5.00002H15.8327Z" stroke="#231F20" stroke-width="1.2" stroke-linecap="round" stroke-linejoin="round"/>
<path d="M8.33398 9.16669V14.1667" stroke="#231F20" stroke-width="1.2" stroke-linecap="round" stroke-linejoin="round"/>
<path d="M11.666 9.16669V14.1667" stroke="#231F20" stroke-width="1.2" stroke-linecap="round" stroke-linejoin="round"/>
</svg>
