<svg width="143" height="83" viewBox="0 0 143 83" fill="none" xmlns="http://www.w3.org/2000/svg">
<rect x="82.5" y="12.5" width="49" height="49" rx="11.5" stroke="#D2D2D7"/>
<path fill-rule="evenodd" clip-rule="evenodd" d="M99.4645 40.4645C100.402 39.5268 101.674 39 103 39H111C112.326 39 113.598 39.5268 114.536 40.4645C115.473 41.4021 116 42.6739 116 44V46C116 46.5523 115.552 47 115 47C114.448 47 114 46.5523 114 46V44C114 43.2044 113.684 42.4413 113.121 41.8787C112.559 41.3161 111.796 41 111 41H103C102.204 41 101.441 41.3161 100.879 41.8787C100.316 42.4413 100 43.2044 100 44V46C100 46.5523 99.5523 47 99 47C98.4477 47 98 46.5523 98 46V44C98 42.6739 98.5268 41.4021 99.4645 40.4645Z" fill="#686870"/>
<path fill-rule="evenodd" clip-rule="evenodd" d="M107 29C105.343 29 104 30.3431 104 32C104 33.6569 105.343 35 107 35C108.657 35 110 33.6569 110 32C110 30.3431 108.657 29 107 29ZM102 32C102 29.2386 104.239 27 107 27C109.761 27 112 29.2386 112 32C112 34.7614 109.761 37 107 37C104.239 37 102 34.7614 102 32Z" fill="#686870"/>
</svg>
