<svg width="18" height="18" viewBox="0 0 18 18" fill="none" xmlns="http://www.w3.org/2000/svg">
<path d="M6.33333 16.3334C7.06971 16.3334 7.66667 15.7364 7.66667 15C7.66667 14.2636 7.06971 13.6667 6.33333 13.6667C5.59695 13.6667 5 14.2636 5 15C5 15.7364 5.59695 16.3334 6.33333 16.3334Z" stroke="#2C2C2C" stroke-width="1.8" stroke-linecap="round" stroke-linejoin="round"/>
<path d="M14.3333 16.3334C15.0697 16.3334 15.6667 15.7364 15.6667 15C15.6667 14.2636 15.0697 13.6667 14.3333 13.6667C13.597 13.6667 13 14.2636 13 15C13 15.7364 13.597 16.3334 14.3333 16.3334Z" stroke="#2C2C2C" stroke-width="1.8" stroke-linecap="round" stroke-linejoin="round"/>
<path d="M4.77935 5.00002H16.3327L15.2127 10.5934C15.1517 10.9003 14.9847 11.176 14.741 11.3722C14.4972 11.5684 14.1922 11.6727 13.8793 11.6667H6.83268C6.50714 11.6694 6.19183 11.553 5.94622 11.3393C5.70061 11.1256 5.54166 10.8295 5.49935 10.5067L4.48602 2.82669C4.44399 2.50618 4.28696 2.21185 4.04415 1.99847C3.80133 1.78508 3.48927 1.66718 3.16602 1.66669H1.66602" stroke="#2C2C2C" stroke-width="1.8" stroke-linecap="round" stroke-linejoin="round"/>
</svg>
